{
  "accessors": [
    {
      "bufferView": 2,
      "componentType": 5126,
      "count": 5168,
      "max": [
        2.5502500534057617,
        2.821690082550049,
        1.2009400129318237
      ],
      "min": [
        -2.5502400398254395,
        -0.008488999679684639,
        -2.2904698848724365
      ],
      "type": "VEC3"
    },
    {
      "bufferView": 2,
      "byteOffset": 62016,
      "componentType": 5126,
      "count": 5168,
      "max": [
        0.9999679327011108,
        0.9999973773956299,
        0.9999611973762512
      ],
      "min": [
        -0.9999679327011108,
        -0.9999925494194031,
        -0.999987781047821
      ],
      "type": "VEC3"
    },
    {
      "bufferView": 1,
      "componentType": 5126,
      "count": 5168,
      "max": [
        0.9946600198745728,
        0.9941400289535522
      ],
      "min": [
        0.003700000001117587,
        0.0061299800872802734
      ],
      "type": "VEC2"
    },
    {
      "bufferView": 0,
      "componentType": 5125,
      "count": 24168,
      "type": "SCALAR"
    }
  ],
  "asset": {
    "extras": {
      "author": "kimni88 (https://sketchfab.com/gamervlogerkid)",
      "license": "CC-BY-4.0 (http://creativecommons.org/licenses/by/4.0/)",
      "source": "https://sketchfab.com/3d-models/humungousaur-ben-10-737c72acba6641b4a183ef7379b98ba9",
      "title": "Humungousaur Ben 10"
    },
    "generator": "Sketchfab-12.66.0",
    "version": "2.0"
  },
  "bufferViews": [
    {
      "buffer": 0,
      "byteLength": 96672,
      "name": "floatBufferViews",
      "target": 34963
    },
    {
      "buffer": 0,
      "byteLength": 41344,
      "byteOffset": 96672,
      "byteStride": 8,
      "name": "floatBufferViews",
      "target": 34962
    },
    {
      "buffer": 0,
      "byteLength": 124032,
      "byteOffset": 138016,
      "byteStride": 12,
      "name": "floatBufferViews",
      "target": 34962
    }
  ],
  "buffers": [
    {
      "byteLength": 262048,
      "uri": "scene.bin"
    }
  ],
  "images": [
    {
      "uri": "textures/Texture_001_baseColor.png"
    }
  ],
  "materials": [
    {
      "doubleSided": true,
      "name": "Texture_001",
      "pbrMetallicRoughness": {
        "baseColorTexture": {
          "index": 0
        },
        "metallicFactor": 0.0
      }
    }
  ],
  "meshes": [
    {
      "name": "Mesh_001_Texture_001_0",
      "primitives": [
        {
          "attributes": {
            "NORMAL": 1,
            "POSITION": 0,
            "TEXCOORD_0": 2
          },
          "indices": 3,
          "material": 0,
          "mode": 4
        }
      ]
    }
  ],
  "nodes": [
    {
      "children": [
        1
      ],
      "matrix": [
        1.0,
        0.0,
        0.0,
        0.0,
        0.0,
        2.220446049250313e-16,
        -1.0,
        0.0,
        0.0,
        1.0,
        2.220446049250313e-16,
        0.0,
        0.0,
        0.0,
        0.0,
        1.0
      ],
      "name": "Sketchfab_model"
    },
    {
      "children": [
        2
      ],
      "matrix": [
        0.009999999776482582,
        0.0,
        0.0,
        0.0,
        0.0,
        0.0,
        0.009999999776482582,
        0.0,
        0.0,
        -0.009999999776482582,
        0.0,
        0.0,
        0.0,
        0.0,
        0.0,
        1.0
      ],
      "name": "Humungousaur.fbx"
    },
    {
      "children": [
        3
      ],
      "name": "RootNode"
    },
    {
      "children": [
        4
      ],
      "name": "Mesh_001"
    },
    {
      "mesh": 0,
      "name": "Mesh_001_Texture_001_0"
    }
  ],
  "samplers": [
    {
      "magFilter": 9729,
      "minFilter": 9987,
      "wrapS": 10497,
      "wrapT": 10497
    }
  ],
  "scene": 0,
  "scenes": [
    {
      "name": "Sketchfab_Scene",
      "nodes": [
        0
      ]
    }
  ],
  "textures": [
    {
      "sampler": 0,
      "source": 0
    }
  ]
}
