{
  "accessors": [
    {
      "bufferView": 2,
      "componentType": 5126,
      "count": 4135,
      "max": [
        1.5321099758148193,
        1.843000054359436,
        0.5234209895133972
      ],
      "min": [
        -1.5280499458312988,
        -0.011575999669730663,
        -0.556659996509552
      ],
      "type": "VEC3"
    },
    {
      "bufferView": 2,
      "byteOffset": 49620,
      "componentType": 5126,
      "count": 4135,
      "max": [
        0.9998838901519775,
        0.9995931386947632,
        0.9999879598617554
      ],
      "min": [
        -0.9998838901519775,
        -0.9997224807739258,
        -0.9999743700027466
      ],
      "type": "VEC3"
    },
    {
      "bufferView": 1,
      "componentType": 5126,
      "count": 4135,
      "max": [
        0.994350016117096,
        0.9973599910736084
      ],
      "min": [
        0.0038799999747425318,
        0.005299985408782959
      ],
      "type": "VEC2"
    },
    {
      "bufferView": 0,
      "componentType": 5125,
      "count": 17130,
      "type": "SCALAR"
    }
  ],
  "asset": {
    "extras": {
      "author": "Shavin vfx (https://sketchfab.com/shavinvfx)",
      "license": "CC-BY-4.0 (http://creativecommons.org/licenses/by/4.0/)",
      "source": "https://sketchfab.com/3d-models/ben-10-cannonbolt-5fad4661fe0345949231fd05a64a94b5",
      "title": "Ben 10 Cannonbolt"
    },
    "generator": "Sketchfab-13.74.0",
    "version": "2.0"
  },
  "bufferViews": [
    {
      "buffer": 0,
      "byteLength": 68520,
      "name": "floatBufferViews",
      "target": 34963
    },
    {
      "buffer": 0,
      "byteLength": 33080,
      "byteOffset": 68520,
      "byteStride": 8,
      "name": "floatBufferViews",
      "target": 34962
    },
    {
      "buffer": 0,
      "byteLength": 99240,
      "byteOffset": 101600,
      "byteStride": 12,
      "name": "floatBufferViews",
      "target": 34962
    }
  ],
  "buffers": [
    {
      "byteLength": 200840,
      "uri": "scene.bin"
    }
  ],
  "images": [
    {
      "uri": "textures/Texture_001_baseColor.png"
    }
  ],
  "materials": [
    {
      "doubleSided": true,
      "name": "Texture_001",
      "pbrMetallicRoughness": {
        "baseColorTexture": {
          "index": 0
        },
        "metallicFactor": 0.943301585308884,
        "roughnessFactor": 0.26828112355118583
      }
    }
  ],
  "meshes": [
    {
      "name": "Mesh_001_Texture_001_0",
      "primitives": [
        {
          "attributes": {
            "NORMAL": 1,
            "POSITION": 0,
            "TEXCOORD_0": 2
          },
          "indices": 3,
          "material": 0,
          "mode": 4
        }
      ]
    }
  ],
  "nodes": [
    {
      "children": [
        1
      ],
      "matrix": [
        1.0,
        0.0,
        0.0,
        0.0,
        0.0,
        2.220446049250313e-16,
        -1.0,
        0.0,
        0.0,
        1.0,
        2.220446049250313e-16,
        0.0,
        0.0,
        0.0,
        0.0,
        1.0
      ],
      "name": "Sketchfab_model"
    },
    {
      "children": [
        2
      ],
      "matrix": [
        0.009999999776482582,
        0.0,
        0.0,
        0.0,
        0.0,
        0.0,
        0.009999999776482582,
        0.0,
        0.0,
        -0.009999999776482582,
        0.0,
        0.0,
        0.0,
        0.0,
        0.0,
        1.0
      ],
      "name": "342b7dc0dd8941478a42494c2b985aa0.fbx"
    },
    {
      "children": [
        3
      ],
      "name": "RootNode"
    },
    {
      "children": [
        4
      ],
      "name": "Mesh_001"
    },
    {
      "mesh": 0,
      "name": "Mesh_001_Texture_001_0"
    }
  ],
  "samplers": [
    {
      "magFilter": 9729,
      "minFilter": 9987,
      "wrapS": 10497,
      "wrapT": 10497
    }
  ],
  "scene": 0,
  "scenes": [
    {
      "name": "Sketchfab_Scene",
      "nodes": [
        0
      ]
    }
  ],
  "textures": [
    {
      "sampler": 0,
      "source": 0
    }
  ]
}
