{
  "accessors": [
    {
      "bufferView": 2,
      "componentType": 5126,
      "count": 5608,
      "max": [
        1.2488800287246704,
        2.2338500022888184,
        0.25559499859809875
      ],
      "min": [
        -1.2354099750518799,
        -0.007528000045567751,
        -0.28220999240875244
      ],
      "type": "VEC3"
    },
    {
      "bufferView": 2,
      "byteOffset": 67296,
      "componentType": 5126,
      "count": 5608,
      "max": [
        0.9999077916145325,
        1.0,
        0.9999437928199768
      ],
      "min": [
        -0.9999048709869385,
        -1.0,
        -1.0
      ],
      "type": "VEC3"
    },
    {
      "bufferView": 1,
      "componentType": 5126,
      "count": 5608,
      "max": [
        0.9948999881744385,
        0.9941400289535522
      ],
      "min": [
        0.004170000087469816,
        0.014859974384307861
      ],
      "type": "VEC2"
    },
    {
      "bufferView": 0,
      "componentType": 5125,
      "count": 23829,
      "type": "SCALAR"
    }
  ],
  "asset": {
    "extras": {
      "author": "kimni88 (https://sketchfab.com/gamervlogerkid)",
      "license": "CC-BY-4.0 (http://creativecommons.org/licenses/by/4.0/)",
      "source": "https://sketchfab.com/3d-models/goop-ben-10-8a129c223c4d422f98054ec9eaaf651e",
      "title": "Goop Ben 10"
    },
    "generator": "Sketchfab-12.66.0",
    "version": "2.0"
  },
  "bufferViews": [
    {
      "buffer": 0,
      "byteLength": 95316,
      "name": "floatBufferViews",
      "target": 34963
    },
    {
      "buffer": 0,
      "byteLength": 44864,
      "byteOffset": 95316,
      "byteStride": 8,
      "name": "floatBufferViews",
      "target": 34962
    },
    {
      "buffer": 0,
      "byteLength": 134592,
      "byteOffset": 140180,
      "byteStride": 12,
      "name": "floatBufferViews",
      "target": 34962
    }
  ],
  "buffers": [
    {
      "byteLength": 274772,
      "uri": "scene.bin"
    }
  ],
  "images": [
    {
      "uri": "textures/Texture_001_baseColor.png"
    }
  ],
  "materials": [
    {
      "doubleSided": true,
      "name": "Texture_001",
      "pbrMetallicRoughness": {
        "baseColorTexture": {
          "index": 0
        },
        "metallicFactor": 0.0
      }
    }
  ],
  "meshes": [
    {
      "name": "Mesh_001_Texture_001_0",
      "primitives": [
        {
          "attributes": {
            "NORMAL": 1,
            "POSITION": 0,
            "TEXCOORD_0": 2
          },
          "indices": 3,
          "material": 0,
          "mode": 4
        }
      ]
    }
  ],
  "nodes": [
    {
      "children": [
        1
      ],
      "matrix": [
        1.0,
        0.0,
        0.0,
        0.0,
        0.0,
        2.220446049250313e-16,
        -1.0,
        0.0,
        0.0,
        1.0,
        2.220446049250313e-16,
        0.0,
        0.0,
        0.0,
        0.0,
        1.0
      ],
      "name": "Sketchfab_model"
    },
    {
      "children": [
        2
      ],
      "matrix": [
        0.009999999776482582,
        0.0,
        0.0,
        0.0,
        0.0,
        0.0,
        0.009999999776482582,
        0.0,
        0.0,
        -0.009999999776482582,
        0.0,
        0.0,
        0.0,
        0.0,
        0.0,
        1.0
      ],
      "name": "Goop.fbx"
    },
    {
      "children": [
        3
      ],
      "name": "RootNode"
    },
    {
      "children": [
        4
      ],
      "name": "Mesh_001"
    },
    {
      "mesh": 0,
      "name": "Mesh_001_Texture_001_0"
    }
  ],
  "samplers": [
    {
      "magFilter": 9729,
      "minFilter": 9987,
      "wrapS": 10497,
      "wrapT": 10497
    }
  ],
  "scene": 0,
  "scenes": [
    {
      "name": "Sketchfab_Scene",
      "nodes": [
        0
      ]
    }
  ],
  "textures": [
    {
      "sampler": 0,
      "source": 0
    }
  ]
}
