{
  "accessors": [
    {
      "bufferView": 3,
      "componentType": 5126,
      "count": 55,
      "max": [
        0.40664488077163696,
        0.35404014587402344,
        1.2035913467407227
      ],
      "min": [
        -0.39427703619003296,
        -0.35227546095848083,
        -0.12446293234825134
      ],
      "type": "VEC3"
    },
    {
      "bufferView": 3,
      "byteOffset": 660,
      "componentType": 5126,
      "count": 55,
      "max": [
        0.9942867159843445,
        0.8667605519294739,
        0.998394250869751
      ],
      "min": [
        -0.9996963739395142,
        -0.8769888281822205,
        -0.8256163001060486
      ],
      "type": "VEC3"
    },
    {
      "bufferView": 2,
      "componentType": 5126,
      "count": 55,
      "max": [
        0.9692779779434204,
        0.9381135702133179
      ],
      "min": [
        0.6304468512535095,
        0.1284548044204712
      ],
      "type": "VEC2"
    },
    {
      "bufferView": 1,
      "componentType": 5125,
      "count": 198,
      "type": "SCALAR"
    },
    {
      "bufferView": 3,
      "byteOffset": 1320,
      "componentType": 5126,
      "count": 55,
      "max": [
        0.40664488077163696,
        0.35404014587402344,
        1.2035913467407227
      ],
      "min": [
        -0.39427703619003296,
        -0.35227546095848083,
        -0.12446293234825134
      ],
      "type": "VEC3"
    },
    {
      "bufferView": 3,
      "byteOffset": 1980,
      "componentType": 5126,
      "count": 55,
      "max": [
        0.9942867159843445,
        0.8667605519294739,
        0.998394250869751
      ],
      "min": [
        -0.9996963739395142,
        -0.8769888281822205,
        -0.8256163001060486
      ],
      "type": "VEC3"
    },
    {
      "bufferView": 2,
      "byteOffset": 440,
      "componentType": 5126,
      "count": 55,
      "max": [
        0.9692779779434204,
        0.9381135702133179
      ],
      "min": [
        0.6304468512535095,
        0.1284548044204712
      ],
      "type": "VEC2"
    },
    {
      "bufferView": 1,
      "byteOffset": 792,
      "componentType": 5125,
      "count": 198,
      "type": "SCALAR"
    },
    {
      "bufferView": 3,
      "byteOffset": 2640,
      "componentType": 5126,
      "count": 1610,
      "max": [
        1.6220660209655762,
        0.6243714690208435,
        0.08419851213693619
      ],
      "min": [
        -1.6259989738464355,
        -1.5916954278945923,
        -2.483492851257324
      ],
      "type": "VEC3"
    },
    {
      "bufferView": 3,
      "byteOffset": 21960,
      "componentType": 5126,
      "count": 1610,
      "max": [
        0.9997854232788086,
        1.0,
        0.9919778108596802
      ],
      "min": [
        -0.9919464588165283,
        -0.9998486638069153,
        -0.9919458627700806
      ],
      "type": "VEC3"
    },
    {
      "bufferView": 2,
      "byteOffset": 880,
      "componentType": 5126,
      "count": 1610,
      "max": [
        0.9956879019737244,
        0.9924653172492981
      ],
      "min": [
        0.0068085333332419395,
        0.004176000133156776
      ],
      "type": "VEC2"
    },
    {
      "bufferView": 1,
      "byteOffset": 1584,
      "componentType": 5125,
      "count": 4824,
      "type": "SCALAR"
    },
    {
      "bufferView": 5,
      "componentType": 5126,
      "count": 34,
      "max": [
        100.0,
        0.23938468098640442,
        1.0,
        0.0,
        0.9753552079200745,
        100.0,
        0.2697314918041229,
        0.0,
        0.9922245144844055,
        0.4481391906738281,
        100.0,
        0.0,
        1.179607629776001,
        0.4692760705947876,
        1.5283489227294922,
        1.0
      ],
      "min": [
        -0.5457690358161926,
        -0.23939231038093567,
        -1.0000003576278687,
        0.0,
        -0.999977171421051,
        -0.9371901154518127,
        -0.3488159477710724,
        0.0,
        -0.9987805485725403,
        -0.9999772906303406,
        -0.937187135219574,
        0.0,
        -1.9935530424118042,
        -0.673250138759613,
        -1.7899075746536255,
        1.0
      ],
      "type": "MAT4"
    },
    {
      "bufferView": 0,
      "componentType": 5123,
      "count": 1610,
      "type": "VEC4"
    },
    {
      "bufferView": 4,
      "componentType": 5126,
      "count": 1610,
      "max": [
        1.0,
        0.4838709533214569,
        0.0,
        0.0
      ],
      "min": [
        0.5161290168762207,
        0.0,
        0.0,
        0.0
      ],
      "type": "VEC4"
    }
  ],
  "asset": {
    "extras": {
      "author": "Arturo.Wimbleton (https://sketchfab.com/Arturo.Wimbleton)",
      "license": "CC-BY-4.0 (http://creativecommons.org/licenses/by/4.0/)",
      "source": "https://sketchfab.com/3d-models/ben-10-wrath-of-psychobos-armodrillo-671aabf0712441e48d1ba8e8e9baa524",
      "title": "Ben 10 Wrath of Psychobos: Armodrillo"
    },
    "generator": "Sketchfab-12.97.0",
    "version": "2.0"
  },
  "bufferViews": [
    {
      "buffer": 0,
      "byteLength": 12880,
      "byteStride": 8,
      "name": "shortBufferViews",
      "target": 34962
    },
    {
      "buffer": 0,
      "byteLength": 20880,
      "byteOffset": 12880,
      "name": "floatBufferViews",
      "target": 34963
    },
    {
      "buffer": 0,
      "byteLength": 13760,
      "byteOffset": 33760,
      "byteStride": 8,
      "name": "floatBufferViews",
      "target": 34962
    },
    {
      "buffer": 0,
      "byteLength": 41280,
      "byteOffset": 47520,
      "byteStride": 12,
      "name": "floatBufferViews",
      "target": 34962
    },
    {
      "buffer": 0,
      "byteLength": 25760,
      "byteOffset": 88800,
      "byteStride": 16,
      "name": "floatBufferViews",
      "target": 34962
    },
    {
      "buffer": 0,
      "byteLength": 2176,
      "byteOffset": 114560,
      "name": "floatBufferViews"
    }
  ],
  "buffers": [
    {
      "byteLength": 116736,
      "uri": "scene.bin"
    }
  ],
  "images": [
    {
      "uri": "textures/OutlinePlayer_baseColor.png"
    }
  ],
  "materials": [
    {
      "doubleSided": true,
      "name": "armodrillo",
      "pbrMetallicRoughness": {
        "baseColorFactor": [
          0.5,
          0.5,
          0.5,
          1.0
        ],
        "metallicFactor": 0.0,
        "roughnessFactor": 0.8942628736559436
      }
    },
    {
      "doubleSided": true,
      "name": "OutlinePlayer",
      "pbrMetallicRoughness": {
        "baseColorTexture": {
          "index": 0
        },
        "metallicFactor": 0.0,
        "roughnessFactor": 0.7885257473118872
      }
    }
  ],
  "meshes": [
    {
      "name": "armodrillo_drill_L002_armodrillo_0",
      "primitives": [
        {
          "attributes": {
            "NORMAL": 1,
            "POSITION": 0,
            "TEXCOORD_0": 2
          },
          "indices": 3,
          "material": 0,
          "mode": 4
        }
      ]
    },
    {
      "name": "armodrillo_drill_L001_armodrillo_0",
      "primitives": [
        {
          "attributes": {
            "NORMAL": 5,
            "POSITION": 4,
            "TEXCOORD_0": 6
          },
          "indices": 7,
          "material": 0,
          "mode": 4
        }
      ]
    },
    {
      "name": "armodrillo.001_OutlinePlayer_0",
      "primitives": [
        {
          "attributes": {
            "JOINTS_0": 13,
            "NORMAL": 9,
            "POSITION": 8,
            "TEXCOORD_0": 10,
            "WEIGHTS_0": 14
          },
          "indices": 11,
          "material": 1,
          "mode": 4
        }
      ]
    }
  ],
  "nodes": [
    {
      "children": [
        1
      ],
      "matrix": [
        1.0,
        0.0,
        0.0,
        0.0,
        0.0,
        1.0,
        4.440892098500626e-16,
        0.0,
        0.0,
        -4.440892098500626e-16,
        1.0,
        0.0,
        0.0,
        0.0,
        0.0,
        1.0
      ],
      "name": "Sketchfab_model"
    },
    {
      "children": [
        2
      ],
      "matrix": [
        0.009999999776482582,
        0.0,
        0.0,
        0.0,
        0.0,
        0.0,
        0.009999999776482582,
        0.0,
        0.0,
        -0.009999999776482582,
        0.0,
        0.0,
        0.0,
        0.0,
        0.0,
        1.0
      ],
      "name": "Armordrillo.fbx"
    },
    {
      "children": [
        3
      ],
      "name": "RootNode"
    },
    {
      "children": [
        4
      ],
      "matrix": [
        100.0,
        0.0,
        0.0,
        0.0,
        0.0,
        -1.629206793918314e-05,
        -99.99999999999868,
        0.0,
        0.0,
        99.99999999999868,
        -1.629206793918314e-05,
        0.0,
        0.0,
        0.0,
        0.0,
        1.0
      ],
      "name": "armordrillo"
    },
    {
      "children": [
        5,
        44,
        43
      ],
      "name": "Object_4"
    },
    {
      "children": [
        6
      ],
      "name": "_rootJoint"
    },
    {
      "children": [
        7,
        11,
        15,
        39
      ],
      "name": "Hp_CoG_03",
      "rotation": [
        -1.3234889800848443e-23,
        -0.0,
        0.0,
        1.0
      ],
      "translation": [
        -8.764030057228922e-10,
        0.6919060945510864,
        0.09330405294895172
      ]
    },
    {
      "children": [
        8
      ],
      "name": "Bn_L_leg_04",
      "rotation": [
        0.42156970500946045,
        -0.5271080136299133,
        -0.2589699625968933,
        0.6909201741218567
      ],
      "scale": [
        1.0,
        1.0,
        0.9999998807907104
      ],
      "translation": [
        0.15790998935699463,
        0.057486653327941895,
        -0.01267746090888977
      ]
    },
    {
      "children": [
        9
      ],
      "name": "Bn_L_shin_05",
      "rotation": [
        1.5502240557907498e-07,
        0.011231225915253162,
        -0.5062433481216431,
        0.8623175621032715
      ],
      "scale": [
        0.9999999403953552,
        0.9999998807907104,
        0.9999999403953552
      ],
      "translation": [
        0.41776609420776367,
        2.551823854446411e-07,
        -4.842877388000488e-08
      ]
    },
    {
      "children": [
        10
      ],
      "name": "Bn_L_foot_06",
      "rotation": [
        -0.027004016563296318,
        -0.17182275652885437,
        0.7891749143600464,
        0.5890251994132996
      ],
      "translation": [
        0.3924672305583954,
        3.390014171600342e-07,
        5.494803190231323e-08
      ]
    },
    {
      "name": "Bn_L_foot_end_025",
      "rotation": [
        6.617444900424222e-24,
        -1.6543612251060553e-24,
        -1.3877787807814457e-17,
        1.0
      ],
      "translation": [
        0.0,
        0.3924671709537506,
        5.551115123125783e-17
      ]
    },
    {
      "children": [
        12
      ],
      "name": "Bn_R_leg_07",
      "rotation": [
        0.2589711844921112,
        -0.6909230351448059,
        -0.4215674102306366,
        0.5271055102348328
      ],
      "scale": [
        1.0,
        0.9999999403953552,
        0.9999998211860657
      ],
      "translation": [
        -0.15790581703186035,
        0.057486653327941895,
        -0.01267746090888977
      ]
    },
    {
      "children": [
        13
      ],
      "name": "Bn_R_shin_08",
      "rotation": [
        -2.3398241566496836e-08,
        -0.011231659911572933,
        -0.5062434077262878,
        0.8623175024986267
      ],
      "scale": [
        0.9999999403953552,
        1.0,
        1.0
      ],
      "translation": [
        0.4177664518356323,
        3.166496753692627e-07,
        2.1979212760925293e-07
      ]
    },
    {
      "children": [
        14
      ],
      "name": "Bn_R_foot_09",
      "rotation": [
        0.026999887079000473,
        0.1718248724937439,
        0.7891747951507568,
        0.5890251398086548
      ],
      "scale": [
        1.0,
        0.9999999403953552,
        0.9999998807907104
      ],
      "translation": [
        0.39246630668640137,
        5.029141902923584e-07,
        -4.880130290985107e-07
      ]
    },
    {
      "name": "Bn_R_foot_end_026",
      "rotation": [
        0.0,
        -0.0,
        -1.3877787807814457e-17,
        1.0
      ],
      "translation": [
        0.0,
        0.39246636629104614,
        0.0
      ]
    },
    {
      "children": [
        16
      ],
      "name": "Bn_spine01_010",
      "rotation": [
        0.5424535274505615,
        0.45359060168266296,
        0.5424532890319824,
        0.4535905420780182
      ],
      "translation": [
        0.0,
        -0.0030907392501831055,
        0.002947777509689331
      ]
    },
    {
      "children": [
        17
      ],
      "name": "Bn_spine02_011",
      "rotation": [
        6.690553959742829e-07,
        2.2449567538274096e-08,
        -0.11343049257993698,
        0.9935459494590759
      ],
      "scale": [
        1.0,
        1.0000001192092896,
        1.0
      ],
      "translation": [
        0.4234295189380646,
        2.4586915969848633e-07,
        -1.1370685726319607e-08
      ]
    },
    {
      "children": [
        18,
        20
      ],
      "name": "Bn_spine03_012",
      "rotation": [
        -8.198686600735527e-07,
        -4.3055322862528556e-08,
        0.10936643183231354,
        0.9940015077590942
      ],
      "scale": [
        0.9999999403953552,
        0.9999999403953552,
        1.0
      ],
      "translation": [
        0.4602319002151489,
        -2.980220692450075e-08,
        -7.573805049787552e-08
      ]
    },
    {
      "children": [
        19
      ],
      "name": "Bn_head_013",
      "rotation": [
        -4.3283509398861497e-07,
        1.913257285934833e-08,
        0.03836026415228844,
        0.9992640018463135
      ],
      "translation": [
        0.4407074451446533,
        2.682208162241295e-07,
        1.1344856432060624e-07
      ]
    },
    {
      "name": "Bn_head_end_027",
      "rotation": [
        1.0587911840678754e-22,
        -1.4693679385278594e-39,
        -1.3877787807814457e-17,
        1.0
      ],
      "translation": [
        2.220446049250313e-16,
        0.35484620928764343,
        5.293955920339377e-23
      ]
    },
    {
      "children": [
        21,
        30
      ],
      "name": "Hp_arms_014",
      "rotation": [
        0.5405941009521484,
        0.4558049440383911,
        0.5405940413475037,
        -0.4558049738407135
      ],
      "scale": [
        1.000000238418579,
        1.0000003576278687,
        1.0000001192092896
      ],
      "translation": [
        0.2673627734184265,
        0.02949841320514679,
        -3.110406154860357e-08
      ]
    },
    {
      "children": [
        22
      ],
      "name": "Bn_L_arm_015",
      "rotation": [
        0.732245683670044,
        -0.31413716077804565,
        -0.35837581753730774,
        0.4865191578865051
      ],
      "scale": [
        0.9999999403953552,
        1.0,
        1.0
      ],
      "translation": [
        0.6977298259735107,
        9.60747911449289e-07,
        -3.4966393513968796e-07
      ]
    },
    {
      "children": [
        23,
        25,
        27
      ],
      "name": "Bn_L_for_arm_016",
      "rotation": [
        -0.11725901067256927,
        -0.23284690082073212,
        0.1897253394126892,
        0.946592390537262
      ],
      "scale": [
        1.0,
        0.9999998807907104,
        0.9999998211860657
      ],
      "translation": [
        0.6967187523841858,
        4.023313522338867e-07,
        -4.041939973831177e-07
      ]
    },
    {
      "children": [
        24
      ],
      "name": "Bn_L_hand_017",
      "rotation": [
        -0.03994929417967796,
        -0.043266661465168,
        0.11605210602283478,
        0.9914958477020264
      ],
      "translation": [
        1.019252061843872,
        -3.473833203315735e-07,
        6.809423211961985e-07
      ]
    },
    {
      "name": "Bn_L_hand_end_028",
      "rotation": [
        7.806255641895632e-18,
        -2.1666711874356403e-34,
        -2.7755575615628914e-17,
        1.0
      ],
      "translation": [
        2.7755575615628914e-17,
        0.8318893909454346,
        0.0
      ]
    },
    {
      "children": [
        26
      ],
      "name": "Hp_L_elbow_018",
      "rotation": [
        0.7266399264335632,
        0.08424678444862366,
        -0.6751372218132019,
        0.09532377123832703
      ],
      "scale": [
        0.9999959468841553,
        0.9999997615814209,
        0.9999998211860657
      ],
      "translation": [
        -0.4369235038757324,
        -0.39504796266555786,
        -0.26162755489349365
      ]
    },
    {
      "name": "Hp_L_elbow_end_029",
      "rotation": [
        -5.551115123125783e-17,
        -1.0842021724855044e-19,
        1.6263032587282567e-19,
        1.0
      ],
      "translation": [
        2.220446049250313e-16,
        0.8318893909454346,
        0.0
      ]
    },
    {
      "children": [
        28
      ],
      "name": "Hp_L_drill_01",
      "rotation": [
        -0.09958653151988983,
        0.6423039436340332,
        0.09507118165493011,
        0.7539825439453125
      ],
      "scale": [
        -0.30278706550598145,
        -0.30278703570365906,
        -0.3027871549129486
      ],
      "translation": [
        0.6307847499847412,
        -0.10216039419174194,
        -0.08753645420074463
      ]
    },
    {
      "children": [
        29
      ],
      "matrix": [
        0.9993923408185984,
        3.776220572349048e-09,
        -0.03484927941896431,
        0.0,
        -1.0118821550359362e-07,
        -1.0000002384140434,
        -3.0101899028351245e-06,
        0.0,
        -0.03484928149599703,
        3.0118865311316898e-06,
        -0.9993924003825048,
        0.0,
        -0.0020513534545898438,
        0.0008839964866638184,
        0.020050764083862305,
        1.0
      ],
      "name": "armodrillo_drill_L002"
    },
    {
      "mesh": 0,
      "name": "armodrillo_drill_L002_armodrillo_0"
    },
    {
      "children": [
        31
      ],
      "name": "Bn_R_arm_019",
      "rotation": [
        -0.35837581753730774,
        0.48651912808418274,
        0.7322457432746887,
        -0.31413733959198
      ],
      "scale": [
        1.0,
        0.9999997615814209,
        0.9999998807907104
      ],
      "translation": [
        -0.6977301836013794,
        2.3743118049424083e-07,
        1.0097696190314309e-07
      ]
    },
    {
      "children": [
        32,
        34,
        36
      ],
      "name": "Bn_R_for_arm_020",
      "rotation": [
        0.11725805699825287,
        0.23284727334976196,
        0.18972548842430115,
        0.946592390537262
      ],
      "scale": [
        0.9999998211860657,
        0.9999999403953552,
        0.9999998211860657
      ],
      "translation": [
        0.6967201828956604,
        1.043081283569336e-07,
        -9.797513484954834e-07
      ]
    },
    {
      "children": [
        33
      ],
      "name": "Bn_R_hand_021",
      "rotation": [
        0.0399499349296093,
        0.043266281485557556,
        0.11605215817689896,
        0.9914959073066711
      ],
      "scale": [
        1.0,
        0.9999999403953552,
        0.9999999403953552
      ],
      "translation": [
        1.0192523002624512,
        2.4586915969848633e-07,
        6.004556780681014e-07
      ]
    },
    {
      "name": "Bn_R_hand_end_030",
      "rotation": [
        3.469446951953614e-18,
        -3.469446951953614e-18,
        2.7755575615628914e-17,
        1.0
      ],
      "translation": [
        0.0,
        0.8318882584571838,
        0.0
      ]
    },
    {
      "children": [
        35
      ],
      "name": "Hp_R_elbow_022",
      "rotation": [
        -0.6482204794883728,
        -0.09218845516443253,
        0.7507509589195251,
        -0.08766144514083862
      ],
      "scale": [
        0.9999998807907104,
        1.0,
        1.0
      ],
      "translation": [
        -0.43692290782928467,
        -0.39504528045654297,
        0.26162761449813843
      ]
    },
    {
      "name": "Hp_R_elbow_end_031",
      "rotation": [
        2.7755575615628914e-17,
        1.4444474582904269e-34,
        5.204170427930421e-18,
        1.0
      ],
      "translation": [
        0.0,
        0.8318883180618286,
        -2.220446049250313e-16
      ]
    },
    {
      "children": [
        37
      ],
      "name": "Hp_R_drill_02",
      "rotation": [
        -0.6423039436340332,
        -0.0995839387178421,
        0.7539829611778259,
        -0.09507054835557938
      ],
      "scale": [
        0.3027873635292053,
        0.30278709530830383,
        0.3027872145175934
      ],
      "translation": [
        0.6307851076126099,
        -0.10215598344802856,
        0.08753418922424316
      ]
    },
    {
      "children": [
        38
      ],
      "matrix": [
        0.9993924175236444,
        2.9907091213254855e-09,
        -0.034848790056600146,
        0.0,
        8.254549171602184e-09,
        -0.9999999999999887,
        1.5090408368005485e-07,
        0.0,
        -0.034848792133749425,
        -1.511000670605603e-07,
        -0.9993924770920738,
        0.0,
        -0.0020568370819091797,
        0.0008841156959533691,
        0.020051002502441406,
        1.0
      ],
      "name": "armodrillo_drill_L001"
    },
    {
      "mesh": 1,
      "name": "armodrillo_drill_L001_armodrillo_0"
    },
    {
      "children": [
        40
      ],
      "name": "Bn_tail01_023",
      "rotation": [
        -0.010795353911817074,
        0.7070244550704956,
        -0.010795353911817074,
        0.7070242762565613
      ],
      "scale": [
        1.0,
        0.9999999403953552,
        1.0
      ],
      "translation": [
        0.0,
        -0.01818406581878662,
        -0.08813384175300598
      ]
    },
    {
      "children": [
        41
      ],
      "name": "Bn_tail02_024",
      "rotation": [
        -2.8442498356540113e-10,
        -3.19164243645087e-11,
        0.0070143332704901695,
        0.9999755024909973
      ],
      "scale": [
        0.9999999403953552,
        0.9999999403953552,
        1.0
      ],
      "translation": [
        0.5110781192779541,
        -2.60770320892334e-08,
        8.773923099170133e-08
      ]
    },
    {
      "children": [
        42
      ],
      "name": "Bn_tail03_00",
      "rotation": [
        -3.030112694091258e-08,
        -2.1471567579478545e-10,
        0.011632759124040604,
        0.9999323487281799
      ],
      "scale": [
        0.9999999403953552,
        0.9999999403953552,
        1.0
      ],
      "translation": [
        0.4889441728591919,
        -8.791685104370117e-07,
        2.255931619288276e-08
      ]
    },
    {
      "name": "Bn_tail03_end_032",
      "rotation": [
        -2.7465449900766415e-42,
        6.333101564859118e-24,
        4.336808689942018e-19,
        1.0
      ],
      "translation": [
        -1.1102230246251565e-16,
        0.4889442026615143,
        -2.6469779601696886e-23
      ]
    },
    {
      "matrix": [
        100.0,
        -6.13398221105399e-13,
        -1.6653345369377348e-14,
        0.0,
        -1.6653318519607393e-14,
        4.377216795154261e-06,
        -100.0,
        0.0,
        6.13398221834352e-13,
        100.0,
        4.377216795154261e-06,
        0.0,
        -0.1968264524853396,
        -0.1513243317604065,
        0.13394618034362793,
        1.0
      ],
      "name": "Object_43"
    },
    {
      "mesh": 2,
      "name": "Object_44",
      "skin": 0
    }
  ],
  "samplers": [
    {
      "magFilter": 9729,
      "minFilter": 9987,
      "wrapS": 10497,
      "wrapT": 10497
    }
  ],
  "scene": 0,
  "scenes": [
    {
      "name": "Sketchfab_Scene",
      "nodes": [
        0
      ]
    }
  ],
  "skins": [
    {
      "inverseBindMatrices": 12,
      "joints": [
        5,
        6,
        7,
        8,
        9,
        10,
        11,
        12,
        13,
        14,
        15,
        16,
        17,
        18,
        19,
        20,
        21,
        22,
        23,
        24,
        25,
        26,
        27,
        30,
        31,
        32,
        33,
        34,
        35,
        36,
        39,
        40,
        41,
        42
      ],
      "skeleton": 5
    }
  ],
  "textures": [
    {
      "sampler": 0,
      "source": 0
    }
  ]
}
